<svg xmlns="http://www.w3.org/2000/svg" viewBox="0 0 133.32 24.6"><defs><style>.cls-1{fill:#020202;}.cls-2{fill:#686868;}.cls-3{fill:#ccc;}.cls-4{fill:#f2f2f2;}.cls-5{fill:#fff;}.cls-6{fill:#bce4f8;}.cls-7{fill:#e4f5fd;}.cls-8{fill:#2763bb;}.cls-9{fill:#3079e6;}.cls-10{fill:#474747;}</style></defs><g id="Capa_2" data-name="Capa 2"><g id="Capa_1-2" data-name="Capa 1"><path class="cls-1" d="M34.12,11.58a23.13,23.13,0,0,0-3.76,1.14c0,.1-.09.19-.14.29a16.91,16.91,0,0,0-1.63,4.42c-.06.32-.19.49-.4.49a.5.5,0,0,1-.4-.23.56.56,0,0,1-.14-.38,4.76,4.76,0,0,1,.22-1,13.8,13.8,0,0,1,.45-1.37l.56-1.28.23-.54-.51.21a.69.69,0,0,1-.26.06c-.18,0-.27-.13-.27-.41a.44.44,0,0,1,.23-.41,2.55,2.55,0,0,1,.62-.27l.75-.29c.12-.21.34-.63.67-1.27.05-.12.25-.45.58-1a33.89,33.89,0,0,0,1.87-3.43,10.09,10.09,0,0,1,.49-1A.52.52,0,0,1,33.7,5c.28,0,.42.13.42.4q0,.93-2.52,5a7.66,7.66,0,0,0-.6,1.16l.43-.12c1.2-.34,2.29-.65,3.27-.9.67-1.25,1.5-2.62,2.47-4.14a4.62,4.62,0,0,0,.3-.5c.14-.25.29-.37.45-.37a.38.38,0,0,1,.33.16.47.47,0,0,1,.11.31,2.06,2.06,0,0,1-.34.91L37.3,8c-.75,1.16-1.22,1.94-1.42,2.33l.39,0c.46,0,.69.12.69.35a.56.56,0,0,1-.22.41.54.54,0,0,1-.37.16H36a3.12,3.12,0,0,0-.63.08A22.61,22.61,0,0,0,33,17.15c-.09.38-.24.57-.44.57a.57.57,0,0,1-.43-.29A.86.86,0,0,1,32,17C32,16.43,32.68,14.63,34.12,11.58Z"/><path class="cls-1" d="M36.44,15.3v.16a.58.58,0,0,0,.09.33.81.81,0,0,0,.72.33c.74,0,1.58-.57,2.54-1.69.17-.19.32-.29.43-.29a.21.21,0,0,1,.18.1.24.24,0,0,1,.05.13c0,.23-.28.61-.84,1.16a6.25,6.25,0,0,1-1.41,1,3,3,0,0,1-1.39.41,1.24,1.24,0,0,1-1-.46,1.34,1.34,0,0,1-.26-.86,4.2,4.2,0,0,1,1.4-2.91,3.08,3.08,0,0,1,2-1.16.68.68,0,0,1,.41.14.6.6,0,0,1,.23.48,2.32,2.32,0,0,1-.43,1.15A4.61,4.61,0,0,1,36.44,15.3Zm.19-.69a3.51,3.51,0,0,0,1-.47,3.9,3.9,0,0,0,1-1.07.72.72,0,0,0,.13-.38c0-.12-.05-.18-.16-.18a1.22,1.22,0,0,0-.65.35A4.4,4.4,0,0,0,36.63,14.61ZM41.15,8a.3.3,0,0,1,.24.11.29.29,0,0,1,.1.21,3.7,3.7,0,0,1-.79,1.19,7.86,7.86,0,0,1-.58.66.55.55,0,0,1-.34.17c-.19,0-.28-.1-.28-.31a1.14,1.14,0,0,1,.34-.61,10.23,10.23,0,0,0,.8-1C40.82,8.09,41,8,41.15,8Z"/><path class="cls-1" d="M43.87,11.54c.46,0,.7.24.7.73a2.1,2.1,0,0,1-.51,1.29c-.25.33-.48.49-.67.49s-.25-.09-.25-.28a.43.43,0,0,1,.07-.24l.21-.2a1.75,1.75,0,0,0,.33-.45.76.76,0,0,0,.11-.32c0-.1,0-.14-.16-.14a1.08,1.08,0,0,0-.56.29A5,5,0,0,0,42,14.17a3.56,3.56,0,0,0-.62,1.63.52.52,0,0,0,.12.34.5.5,0,0,0,.44.23,2.15,2.15,0,0,0,1.31-.68,8.83,8.83,0,0,0,1.08-1.18c.16-.22.29-.33.4-.33a.26.26,0,0,1,.18.09.34.34,0,0,1,.07.18c0,.21-.28.64-.84,1.26a3.55,3.55,0,0,1-2.41,1.48,1.16,1.16,0,0,1-1-.47,1.37,1.37,0,0,1-.25-.81,4.18,4.18,0,0,1,.76-2.11,6.78,6.78,0,0,1,1.69-1.86A1.74,1.74,0,0,1,43.87,11.54Z"/><path class="cls-1" d="M48.83,11.33a15.27,15.27,0,0,0-1.06,2,6.66,6.66,0,0,0-.69,2.34.5.5,0,0,0,.09.33.34.34,0,0,0,.28.12c.29,0,.65-.28,1.06-.83a8.84,8.84,0,0,0,.7-1c.12-.19.24-.29.37-.29a.27.27,0,0,1,.19.08.25.25,0,0,1,.07.16A4,4,0,0,1,49,15.65c-.68.9-1.3,1.35-1.87,1.35a.87.87,0,0,1-.74-.41,1.22,1.22,0,0,1-.19-.75,6.38,6.38,0,0,1,.62-2.47c.1-.24.37-.8.82-1.7a1.64,1.64,0,0,1-.36.06.57.57,0,0,1-.32-.09.35.35,0,0,1-.2-.3A.41.41,0,0,1,47,11a4.54,4.54,0,0,1,.65-.11,4,4,0,0,0,.61-.17,15.14,15.14,0,0,1,1-1.5c.25-.35.43-.58.53-.69a.62.62,0,0,1,.37-.22.34.34,0,0,1,.23.13.33.33,0,0,1,.11.23,2.27,2.27,0,0,1-.5.9c-.21.29-.37.53-.48.71a6.51,6.51,0,0,1,1.4-.26c.32,0,.48.13.48.4a.3.3,0,0,1-.17.3,1.14,1.14,0,0,1-.45.09,8.93,8.93,0,0,0-1.33.33Z"/><path class="cls-1" d="M53.4,11.32c.48,0,.72.29.72.88a6.18,6.18,0,0,1-1.08,3c-.79,1.29-1.55,1.94-2.28,1.94a.8.8,0,0,1-.75-.47,1.26,1.26,0,0,1-.12-.57,4.89,4.89,0,0,1,.78-2.45,5.94,5.94,0,0,1,1.69-1.9A1.9,1.9,0,0,1,53.4,11.32Zm-.92,3.32c-.14-.12-.22-.21-.22-.27s.1-.18.29-.39a2.55,2.55,0,0,0,.79-1.43.24.24,0,0,0-.05-.14.22.22,0,0,0-.22-.13c-.18,0-.46.18-.82.54a5.63,5.63,0,0,0-1.08,1.45,3.43,3.43,0,0,0-.43,1.42.47.47,0,0,0,.08.26.35.35,0,0,0,.29.16c.28,0,.59-.21.91-.63a2.92,2.92,0,0,0,.34-.55A1.07,1.07,0,0,0,52.48,14.64Z"/><path class="cls-1" d="M55.78,14.1a16.84,16.84,0,0,1,2-1.81,9.27,9.27,0,0,1,.86-.59,1.09,1.09,0,0,1,.29-.13c.09,0,.17.07.26.2a.34.34,0,0,1,.08.19c0,.11-.11.25-.33.43-.6.47-.9.83-.9,1.07s.08.2.23.2a3,3,0,0,0,1.3-.62.5.5,0,0,1,.26-.1A.17.17,0,0,1,60,13a.19.19,0,0,1,.08.16c0,.18-.24.45-.74.81a2.44,2.44,0,0,1-1.46.58,1,1,0,0,1-.52-.15.46.46,0,0,1-.2-.44,1,1,0,0,1,.18-.5,8.57,8.57,0,0,0-1.63,1.69A11.8,11.8,0,0,0,54.58,17c-.13.27-.3.4-.5.4a.28.28,0,0,1-.32-.31,7,7,0,0,1,.51-1.59,12.1,12.1,0,0,1,1.58-3c.34-.44.62-.66.85-.66a.31.31,0,0,1,.21.07.26.26,0,0,1,.12.22.71.71,0,0,1-.18.37s-.18.22-.46.59A4.28,4.28,0,0,0,55.78,14.1Z"/><path class="cls-1" d="M66,13.59c.31,0,.47.13.47.39s-.14.34-.44.44a1,1,0,0,0-.75,1,1,1,0,0,0,.44.88,1.67,1.67,0,0,0,1,.26,3.23,3.23,0,0,0,2-.68,1.34,1.34,0,0,0,.54-1.09,1.6,1.6,0,0,0-.16-.73,7.87,7.87,0,0,0-.51-.84c-.35-.53-.65-1-.89-1.44a3,3,0,0,1-.4-1.42A4.08,4.08,0,0,1,69,7.27a7.55,7.55,0,0,1,1.89-1.22,4.18,4.18,0,0,1,1.67-.37,1.41,1.41,0,0,1,.87.27,1,1,0,0,1,.44.89,2.91,2.91,0,0,1-.94,1.89,7.6,7.6,0,0,1-2.1,1.57,2.3,2.3,0,0,1-.9.3.48.48,0,0,1-.36-.17.38.38,0,0,1-.11-.25c0-.22.2-.4.58-.53a5.9,5.9,0,0,0,1.88-1.07c.71-.58,1.06-1.09,1.06-1.53a.51.51,0,0,0-.21-.42.68.68,0,0,0-.4-.12A3.58,3.58,0,0,0,70.8,7a5.2,5.2,0,0,0-1.93,1.6,2.89,2.89,0,0,0-.62,1.67,2.6,2.6,0,0,0,.33,1.21c.18.33.41.71.69,1.13s.5.78.69,1.13a2.54,2.54,0,0,1,.32,1.15,2.26,2.26,0,0,1-1.18,1.84,4.12,4.12,0,0,1-2.29.66,2.72,2.72,0,0,1-2-.69,1.64,1.64,0,0,1-.53-1.21,1.78,1.78,0,0,1,.51-1.29,1.84,1.84,0,0,1,.72-.47A1.38,1.38,0,0,1,66,13.59Z"/><path class="cls-1" d="M73.85,15.54a6.41,6.41,0,0,1-.57.86,1.49,1.49,0,0,1-1.1.68.83.83,0,0,1-.74-.44,1.41,1.41,0,0,1-.16-.69,4.68,4.68,0,0,1,.61-2.15,5.74,5.74,0,0,1,1.65-2,2.12,2.12,0,0,1,1.22-.45.84.84,0,0,1,.62.23.6.6,0,0,1,.21.45,1.48,1.48,0,0,1-.15.54.56.56,0,0,1,.13.32,1.47,1.47,0,0,1-.24.61,7,7,0,0,0-.51,1.14,3.94,3.94,0,0,0-.28,1.22.89.89,0,0,0,.22.6,2,2,0,0,0,.37.2.38.38,0,0,1,.21.37.36.36,0,0,1-.12.28.49.49,0,0,1-.31.11A1,1,0,0,1,74.1,17a1.31,1.31,0,0,1-.28-.86C73.82,16,73.83,15.81,73.85,15.54ZM75,12.65a.89.89,0,0,0-.23-.29.43.43,0,0,0-.26-.09c-.45,0-.93.39-1.45,1.17a4.15,4.15,0,0,0-.86,2.18.55.55,0,0,0,.08.34.3.3,0,0,0,.25.11c.28,0,.61-.3,1-.89a16,16,0,0,0,.79-1.45,7.16,7.16,0,0,1,.44-.83A1.26,1.26,0,0,1,75,12.65Z"/><path class="cls-1" d="M77.37,14.07c-.18.46-.31.83-.4,1.11a2.18,2.18,0,0,0-.13.59.19.19,0,0,0,.21.21c.21,0,.48-.19.82-.59a10.81,10.81,0,0,0,.7-1.05q.18-.3.39-.3a.2.2,0,0,1,.23.22,3.82,3.82,0,0,1-.87,1.53c-.61.8-1.17,1.21-1.68,1.21a.65.65,0,0,1-.55-.29.77.77,0,0,1-.15-.49,4.49,4.49,0,0,1,.3-1.36,22.27,22.27,0,0,1,.89-2.12,30.49,30.49,0,0,1,3.08-5.23c.84-1.1,1.54-1.65,2.09-1.65a.55.55,0,0,1,.43.2.73.73,0,0,1,.17.47q0,1.23-2.19,4.09a21.94,21.94,0,0,1-2.36,2.55Zm.62-1.4a16,16,0,0,0,3.27-3.95A4.52,4.52,0,0,0,82,7.07c0-.13-.06-.19-.17-.19-.32,0-.91.64-1.76,1.92A28.27,28.27,0,0,0,78,12.67Z"/><path class="cls-1" d="M82.38,15.54a7.51,7.51,0,0,1-.58.86,1.46,1.46,0,0,1-1.09.68.82.82,0,0,1-.74-.44A1.41,1.41,0,0,1,79.8,16a4.7,4.7,0,0,1,.62-2.15,5.54,5.54,0,0,1,1.65-2,2.12,2.12,0,0,1,1.22-.45.85.85,0,0,1,.62.23.6.6,0,0,1,.21.45,1.48,1.48,0,0,1-.15.54.64.64,0,0,1,.13.32,1.39,1.39,0,0,1-.25.61,7,7,0,0,0-.51,1.14,3.88,3.88,0,0,0-.27,1.22.84.84,0,0,0,.22.6,1.52,1.52,0,0,0,.36.2.38.38,0,0,1,.22.37.36.36,0,0,1-.12.28.49.49,0,0,1-.31.11,1,1,0,0,1-.82-.42,1.31,1.31,0,0,1-.28-.86A5.53,5.53,0,0,1,82.38,15.54Zm1.09-2.89a.88.88,0,0,0-.22-.29.46.46,0,0,0-.27-.09c-.44,0-.93.39-1.45,1.17a4.24,4.24,0,0,0-.86,2.18.63.63,0,0,0,.08.34.31.31,0,0,0,.25.11c.29,0,.61-.3,1-.89a16.39,16.39,0,0,0,.78-1.45,8.53,8.53,0,0,1,.45-.83A1.16,1.16,0,0,1,83.47,12.65Z"/><path class="cls-1" d="M88.48,11.15a1.48,1.48,0,0,1,.82.19.68.68,0,0,1,.27.59,1.59,1.59,0,0,1-.38,1,2.56,2.56,0,0,1-1.11.73,2.05,2.05,0,0,1-.68.15c-.24,0-.37-.11-.37-.32a.36.36,0,0,1,.22-.34l.59-.15a1.31,1.31,0,0,0,.6-.3.58.58,0,0,0,.24-.44.35.35,0,0,0-.11-.28.52.52,0,0,0-.31-.08,2,2,0,0,0-1.13.41,1.33,1.33,0,0,0-.71,1.11,2.2,2.2,0,0,0,.46,1.14,2.35,2.35,0,0,1,.52,1.27,1.38,1.38,0,0,1-.68,1.21,1.74,1.74,0,0,1-1,.27,1.47,1.47,0,0,1-1.28-.61,1.65,1.65,0,0,1-.31-1,1.89,1.89,0,0,1,.35-1.15.62.62,0,0,1,.48-.3c.14,0,.21,0,.21.17a.46.46,0,0,1-.07.21,1.8,1.8,0,0,0-.21.89,1,1,0,0,0,.31.73.85.85,0,0,0,.63.26.67.67,0,0,0,.53-.22.75.75,0,0,0,.16-.5,1.88,1.88,0,0,0-.42-1,2.53,2.53,0,0,1-.58-1.46,1.91,1.91,0,0,1,1-1.56A3.38,3.38,0,0,1,88.48,11.15Z"/><path class="cls-1" d="M100.17,5.78a.38.38,0,0,1,.28.15.46.46,0,0,1,.11.29,1.23,1.23,0,0,1-.24.6c-.07.12-.36.53-.86,1.22A26.9,26.9,0,0,0,95,16.73c-.07.42-.23.63-.47.63a.46.46,0,0,1-.35-.19.59.59,0,0,1-.14-.38,5.81,5.81,0,0,1,.43-1.62,31.34,31.34,0,0,1,3.46-6.56c.68-1,1.23-1.82,1.66-2.35C99.83,5.94,100,5.78,100.17,5.78Z"/><path class="cls-1" d="M99.22,14l.22-.21c1.22-1.19,2-1.79,2.46-1.79.23,0,.34.12.34.38a1,1,0,0,1-.31.62,5.7,5.7,0,0,0-1.68,3.45,1.76,1.76,0,0,0,.27.93.68.68,0,0,1,.12.31.31.31,0,0,1-.11.21.34.34,0,0,1-.27.12c-.24,0-.44-.15-.6-.46a2.1,2.1,0,0,1-.24-1,5.12,5.12,0,0,1,.89-2.63,7.09,7.09,0,0,0-2.22,2.71c-.17.31-.36.46-.56.46a.33.33,0,0,1-.25-.1.45.45,0,0,1-.12-.32,8.6,8.6,0,0,1,1.08-2.49c.39-.72.69-1.25.91-1.58s.42-.48.58-.48a.32.32,0,0,1,.22.1.39.39,0,0,1,.12.28,1.15,1.15,0,0,1-.26.56A9.37,9.37,0,0,0,99.22,14Z"/><path class="cls-1" d="M105.61,11.32c.48,0,.72.29.72.88a6.18,6.18,0,0,1-1.08,3c-.78,1.29-1.54,1.94-2.27,1.94a.8.8,0,0,1-.75-.47,1.26,1.26,0,0,1-.12-.57,5,5,0,0,1,.77-2.45,6,6,0,0,1,1.7-1.9A1.87,1.87,0,0,1,105.61,11.32Zm-.91,3.32c-.15-.12-.22-.21-.22-.27s.09-.18.28-.39a2.48,2.48,0,0,0,.79-1.43.27.27,0,0,0-.26-.27c-.19,0-.46.18-.83.54a5.58,5.58,0,0,0-1.07,1.45,3.28,3.28,0,0,0-.43,1.42A.47.47,0,0,0,103,16a.34.34,0,0,0,.29.16q.42,0,.9-.63a2.54,2.54,0,0,0,.35-.55A1.07,1.07,0,0,0,104.7,14.64Z"/><path class="cls-1" d="M110.43,11.15a1.5,1.5,0,0,1,.82.19.68.68,0,0,1,.27.59,1.61,1.61,0,0,1-.39,1,2.47,2.47,0,0,1-1.1.73,2.05,2.05,0,0,1-.68.15c-.25,0-.37-.11-.37-.32a.37.37,0,0,1,.21-.34l.6-.15a1.31,1.31,0,0,0,.6-.3.6.6,0,0,0,.23-.44.34.34,0,0,0-.1-.28.56.56,0,0,0-.32-.08,2,2,0,0,0-1.12.41,1.31,1.31,0,0,0-.71,1.11,2.2,2.2,0,0,0,.46,1.14,2.35,2.35,0,0,1,.52,1.27,1.37,1.37,0,0,1-.69,1.21,1.73,1.73,0,0,1-1,.27,1.49,1.49,0,0,1-1.29-.61,1.71,1.71,0,0,1-.3-1,1.83,1.83,0,0,1,.35-1.15.62.62,0,0,1,.47-.3c.15,0,.22,0,.22.17a.51.51,0,0,1-.08.21,1.92,1.92,0,0,0-.2.89,1,1,0,0,0,.31.73.85.85,0,0,0,.62.26.67.67,0,0,0,.54-.22.81.81,0,0,0,.16-.5,1.83,1.83,0,0,0-.43-1,2.6,2.6,0,0,1-.58-1.46,1.91,1.91,0,0,1,1-1.56A3.41,3.41,0,0,1,110.43,11.15Z"/><path class="cls-1" d="M114.19,11.33a14.13,14.13,0,0,0-1,2,6.52,6.52,0,0,0-.7,2.34.45.45,0,0,0,.1.33.32.32,0,0,0,.27.12c.3,0,.65-.28,1.07-.83.26-.34.49-.68.7-1,.11-.19.23-.29.36-.29a.26.26,0,0,1,.19.08.25.25,0,0,1,.07.16,3.8,3.8,0,0,1-.85,1.45q-1,1.35-1.86,1.35a.88.88,0,0,1-.75-.41,1.3,1.3,0,0,1-.18-.75,6.34,6.34,0,0,1,.61-2.47c.1-.24.38-.8.83-1.7a1.64,1.64,0,0,1-.36.06.6.6,0,0,1-.33-.09.34.34,0,0,1-.19-.3.4.4,0,0,1,.25-.36,4.89,4.89,0,0,1,.65-.11,4,4,0,0,0,.62-.17,14.7,14.7,0,0,1,1-1.5q.39-.52.54-.69a.59.59,0,0,1,.37-.22.32.32,0,0,1,.22.13.33.33,0,0,1,.11.23,2.2,2.2,0,0,1-.49.9c-.22.29-.38.53-.49.71a6.51,6.51,0,0,1,1.4-.26c.32,0,.49.13.49.4a.32.32,0,0,1-.17.3,1.21,1.21,0,0,1-.46.09,9.26,9.26,0,0,0-1.33.33Z"/><path class="cls-1" d="M117,14.1a16.84,16.84,0,0,1,2-1.81,9.27,9.27,0,0,1,.86-.59,1.09,1.09,0,0,1,.29-.13c.09,0,.17.07.26.2a.34.34,0,0,1,.08.19c0,.11-.11.25-.33.43-.6.47-.9.83-.9,1.07s.08.2.23.2a3,3,0,0,0,1.3-.62.48.48,0,0,1,.26-.1.17.17,0,0,1,.14.07.19.19,0,0,1,.08.16c0,.18-.24.45-.74.81a2.44,2.44,0,0,1-1.46.58,1,1,0,0,1-.52-.15.46.46,0,0,1-.2-.44,1,1,0,0,1,.18-.5,8.57,8.57,0,0,0-1.63,1.69A11.8,11.8,0,0,0,115.77,17c-.13.27-.3.4-.5.4a.28.28,0,0,1-.32-.31,7,7,0,0,1,.51-1.59,12.1,12.1,0,0,1,1.58-3c.34-.44.62-.66.85-.66a.31.31,0,0,1,.21.07.26.26,0,0,1,.12.22.71.71,0,0,1-.18.37s-.18.22-.46.59A4.28,4.28,0,0,0,117,14.1Z"/><path class="cls-1" d="M124.26,11.32c.49,0,.73.29.73.88a6.1,6.1,0,0,1-1.09,3c-.78,1.29-1.54,1.94-2.27,1.94a.8.8,0,0,1-.75-.47,1.26,1.26,0,0,1-.12-.57,5,5,0,0,1,.77-2.45,6,6,0,0,1,1.7-1.9A1.87,1.87,0,0,1,124.26,11.32Zm-.91,3.32c-.15-.12-.22-.21-.22-.27s.09-.18.28-.39a2.48,2.48,0,0,0,.79-1.43.27.27,0,0,0-.26-.27c-.19,0-.46.18-.83.54A5.58,5.58,0,0,0,122,14.27a3.28,3.28,0,0,0-.43,1.42.47.47,0,0,0,.08.26.34.34,0,0,0,.29.16q.42,0,.9-.63a2.54,2.54,0,0,0,.35-.55A1.07,1.07,0,0,0,123.35,14.64Z"/><path class="cls-1" d="M125.71,16a4.5,4.5,0,0,1,1.4-.28c.68,0,1,.18,1,.53a.42.42,0,0,1-.12.29.37.37,0,0,1-.28.13,2.27,2.27,0,0,1-.42-.07,1.13,1.13,0,0,0-.36-.06,3.27,3.27,0,0,0-1.41.32,2.11,2.11,0,0,1-.63.23.57.57,0,0,1-.36-.13.4.4,0,0,1-.14-.28,3.55,3.55,0,0,1,.87-1.45A17.26,17.26,0,0,1,128,12.46a12,12,0,0,1-1.31.11c-.56,0-.84-.16-.84-.5a.35.35,0,0,1,.1-.26.34.34,0,0,1,.22-.1,2.85,2.85,0,0,1,.47.07l.43,0a5.89,5.89,0,0,0,1.46-.17,2.31,2.31,0,0,1,.47-.06.51.51,0,0,1,.37.16.37.37,0,0,1,.11.28c0,.2-.16.41-.49.64a23.57,23.57,0,0,0-2,1.74A10.9,10.9,0,0,0,125.71,16Z"/><path class="cls-1" d="M131.58,15.54a9.16,9.16,0,0,1-.57.86,1.49,1.49,0,0,1-1.1.68.82.82,0,0,1-.74-.44A1.41,1.41,0,0,1,129,16a4.7,4.7,0,0,1,.62-2.15,5.64,5.64,0,0,1,1.65-2,2.12,2.12,0,0,1,1.22-.45.85.85,0,0,1,.62.23.6.6,0,0,1,.21.45,1.48,1.48,0,0,1-.15.54.56.56,0,0,1,.13.32,1.39,1.39,0,0,1-.25.61,7,7,0,0,0-.51,1.14,3.88,3.88,0,0,0-.27,1.22.84.84,0,0,0,.22.6,1.52,1.52,0,0,0,.36.2.38.38,0,0,1,.22.37.36.36,0,0,1-.12.28.49.49,0,0,1-.31.11,1,1,0,0,1-.82-.42,1.37,1.37,0,0,1-.28-.86A5.53,5.53,0,0,1,131.58,15.54Zm1.1-2.89a.89.89,0,0,0-.23-.29.44.44,0,0,0-.27-.09c-.44,0-.93.39-1.45,1.17a4.24,4.24,0,0,0-.86,2.18A.55.55,0,0,0,130,16a.28.28,0,0,0,.25.11c.28,0,.61-.3,1-.89a16.39,16.39,0,0,0,.78-1.45,8.53,8.53,0,0,1,.45-.83A1,1,0,0,1,132.68,12.65Z"/><path class="cls-2" d="M27.92,21.89l2.78-1.43v.41l-2.35,1.18h0l2.35,1.17v.42l-2.78-1.43Z"/><path class="cls-2" d="M31.55,19.66a7.31,7.31,0,0,1,1.11-.08,2.31,2.31,0,0,1,1.64.5,1.86,1.86,0,0,1,.57,1.45,2.12,2.12,0,0,1-.58,1.57,2.48,2.48,0,0,1-1.79.58,8.77,8.77,0,0,1-.95,0Zm.52,3.57a2.8,2.8,0,0,0,.53,0,1.55,1.55,0,0,0,1.72-1.71A1.44,1.44,0,0,0,32.69,20a3.13,3.13,0,0,0-.62.05Z"/><path class="cls-2" d="M35.85,22.29a.93.93,0,0,0,1,1,2,2,0,0,0,.81-.15l.09.38a2.47,2.47,0,0,1-1,.18,1.35,1.35,0,0,1-1.43-1.47,1.41,1.41,0,0,1,1.37-1.56,1.23,1.23,0,0,1,1.2,1.37c0,.1,0,.19,0,.24Zm1.55-.37a.76.76,0,0,0-.74-.86.88.88,0,0,0-.81.86Z"/><path class="cls-2" d="M38.49,23.11a1.37,1.37,0,0,0,.69.21c.39,0,.57-.19.57-.43s-.15-.39-.54-.54-.77-.47-.77-.82a.89.89,0,0,1,1-.85,1.44,1.44,0,0,1,.72.18l-.14.38a1.13,1.13,0,0,0-.59-.16c-.31,0-.49.18-.49.39s.18.35.56.49.76.45.76.88-.4.87-1.09.87a1.61,1.61,0,0,1-.81-.2Z"/><path class="cls-2" d="M42.54,23.65l0-.37h0a1.06,1.06,0,0,1-.88.43.83.83,0,0,1-.89-.83c0-.7.62-1.08,1.74-1.08v-.06a.59.59,0,0,0-.66-.67,1.35,1.35,0,0,0-.75.22l-.12-.35a1.77,1.77,0,0,1,.95-.26c.89,0,1.11.61,1.11,1.19V23a5,5,0,0,0,0,.7Zm-.07-1.48c-.58,0-1.23.09-1.23.65a.46.46,0,0,0,.49.5.74.74,0,0,0,.71-.48,1,1,0,0,0,0-.17Z"/><path class="cls-2" d="M43.83,21.65c0-.34,0-.63,0-.9h.47v.57h0a.87.87,0,0,1,.8-.64l.15,0v.5a.5.5,0,0,0-.18,0,.75.75,0,0,0-.71.68,1.66,1.66,0,0,0,0,.24v1.55h-.52Z"/><path class="cls-2" d="M45.81,21.65c0-.34,0-.63,0-.9h.46l0,.57h0a.88.88,0,0,1,.81-.64l.15,0v.5a.52.52,0,0,0-.18,0,.74.74,0,0,0-.71.68,1.66,1.66,0,0,0,0,.24v1.55h-.53Z"/><path class="cls-2" d="M50.34,22.17a1.41,1.41,0,0,1-1.44,1.54,1.37,1.37,0,0,1-1.39-1.49A1.41,1.41,0,0,1,49,20.68,1.37,1.37,0,0,1,50.34,22.17Zm-2.3,0c0,.64.37,1.12.88,1.12s.88-.48.88-1.13c0-.49-.24-1.11-.87-1.11S48,21.65,48,22.2Z"/><path class="cls-2" d="M51,19.39h.53v4.26H51Z"/><path class="cls-2" d="M52.43,19.39H53v4.26h-.52Z"/><path class="cls-2" d="M55.45,23.65l0-.37h0a1.07,1.07,0,0,1-.89.43.83.83,0,0,1-.89-.83c0-.7.63-1.08,1.75-1.08v-.06a.6.6,0,0,0-.66-.67,1.41,1.41,0,0,0-.76.22l-.12-.35a1.78,1.78,0,0,1,1-.26c.89,0,1.1.61,1.1,1.19V23a3.78,3.78,0,0,0,0,.7Zm-.08-1.48c-.57,0-1.23.09-1.23.65a.47.47,0,0,0,.5.5.72.72,0,0,0,.7-.48.51.51,0,0,0,0-.17Z"/><path class="cls-2" d="M59.24,19.39V22.9c0,.26,0,.55,0,.75h-.47l0-.51h0a1.05,1.05,0,0,1-1,.57,1.32,1.32,0,0,1-1.25-1.47,1.39,1.39,0,0,1,1.31-1.56,1,1,0,0,1,.87.44h0V19.39Zm-.53,2.54a.8.8,0,0,0-.78-.84c-.55,0-.87.48-.87,1.13s.29,1.07.86,1.07a.8.8,0,0,0,.77-.63.82.82,0,0,0,0-.23Z"/><path class="cls-2" d="M62.75,22.17a1.42,1.42,0,0,1-1.45,1.54,1.37,1.37,0,0,1-1.39-1.49,1.41,1.41,0,0,1,1.44-1.54A1.38,1.38,0,0,1,62.75,22.17Zm-2.31,0c0,.64.37,1.12.88,1.12s.89-.48.89-1.13c0-.49-.25-1.11-.87-1.11S60.44,21.65,60.44,22.2Z"/><path class="cls-2" d="M63.41,21.65c0-.34,0-.63,0-.9h.46l0,.57h0a.87.87,0,0,1,.81-.64l.15,0v.5a.52.52,0,0,0-.18,0,.73.73,0,0,0-.71.68,1.57,1.57,0,0,0,0,.24v1.55h-.52Z"/><path class="cls-2" d="M66.86,20.75l.38,1.47c.08.32.16.62.22.92h0c.07-.29.17-.6.26-.91l.48-1.48h.44l.45,1.45c.11.34.19.65.26.94h0a8.5,8.5,0,0,1,.23-.94L70,20.75h.52l-.93,2.9h-.48l-.45-1.39a9.44,9.44,0,0,1-.25-1h0a8.37,8.37,0,0,1-.26,1l-.47,1.38h-.48l-.87-2.9Z"/><path class="cls-2" d="M71.3,22.29a.92.92,0,0,0,1,1,2,2,0,0,0,.81-.15l.09.38a2.47,2.47,0,0,1-1,.18,1.35,1.35,0,0,1-1.43-1.47,1.41,1.41,0,0,1,1.36-1.56,1.23,1.23,0,0,1,1.2,1.37,1.34,1.34,0,0,1,0,.24Zm1.54-.37a.74.74,0,0,0-.73-.86.88.88,0,0,0-.81.86Z"/><path class="cls-2" d="M74,23.65c0-.2,0-.49,0-.75V19.39h.52v1.82h0a1.09,1.09,0,0,1,1-.53,1.3,1.3,0,0,1,1.22,1.48,1.37,1.37,0,0,1-1.3,1.55,1,1,0,0,1-1-.54h0l0,.48Zm.55-1.17a1.23,1.23,0,0,0,0,.2.83.83,0,0,0,.8.61c.55,0,.88-.45.88-1.11s-.3-1.08-.87-1.08a.84.84,0,0,0-.8.65,1.18,1.18,0,0,0,0,.21Z"/><path class="cls-2" d="M79.92,21.83v.39H78.44v-.39Z"/><path class="cls-2" d="M81.83,19.66a7.12,7.12,0,0,1,1.11-.08,2.29,2.29,0,0,1,1.63.5,1.86,1.86,0,0,1,.57,1.45,2.12,2.12,0,0,1-.58,1.57,2.48,2.48,0,0,1-1.79.58,8.46,8.46,0,0,1-.94,0Zm.52,3.57a2.7,2.7,0,0,0,.53,0,1.55,1.55,0,0,0,1.72-1.71A1.45,1.45,0,0,0,83,20a3,3,0,0,0-.61.05Z"/><path class="cls-2" d="M86.39,19.93a.3.3,0,0,1-.33.32.31.31,0,0,1-.32-.32.32.32,0,0,1,.33-.33A.31.31,0,0,1,86.39,19.93Zm-.59,3.72v-2.9h.53v2.9Z"/><path class="cls-2" d="M87.14,23.11a1.37,1.37,0,0,0,.69.21c.39,0,.57-.19.57-.43s-.15-.39-.54-.54-.77-.47-.77-.82a.89.89,0,0,1,1-.85,1.4,1.4,0,0,1,.71.18l-.13.38a1.13,1.13,0,0,0-.59-.16c-.31,0-.49.18-.49.39s.18.35.55.49.76.45.76.88-.39.87-1.08.87a1.68,1.68,0,0,1-.82-.2Z"/><path class="cls-2" d="M89.88,22.29a.93.93,0,0,0,1,1,2,2,0,0,0,.81-.15l.09.38a2.47,2.47,0,0,1-1,.18,1.35,1.35,0,0,1-1.43-1.47,1.41,1.41,0,0,1,1.37-1.56,1.23,1.23,0,0,1,1.19,1.37c0,.1,0,.19,0,.24Zm1.54-.37a.74.74,0,0,0-.73-.86.88.88,0,0,0-.81.86Z"/><path class="cls-2" d="M92.59,21.53c0-.3,0-.54,0-.78H93l0,.48h0a1.05,1.05,0,0,1,1-.55c.41,0,1,.24,1,1.24v1.73h-.53V22c0-.47-.17-.86-.67-.86a.74.74,0,0,0-.71.54.83.83,0,0,0,0,.24v1.75h-.53Zm.49-1.28c0-.39.15-.63.41-.63a.74.74,0,0,1,.37.14.68.68,0,0,0,.25.1c.1,0,.16-.06.17-.26h.28c0,.4-.13.61-.41.61a.89.89,0,0,1-.37-.12.45.45,0,0,0-.26-.11c-.09,0-.14.1-.15.27Z"/><path class="cls-2" d="M97.53,23.65l0-.37h0a1.08,1.08,0,0,1-.89.43.83.83,0,0,1-.89-.83c0-.7.63-1.08,1.75-1.08v-.06a.6.6,0,0,0-.66-.67,1.41,1.41,0,0,0-.76.22l-.12-.35a1.77,1.77,0,0,1,.95-.26c.89,0,1.11.61,1.11,1.19V23a3.78,3.78,0,0,0,.05.7Zm-.08-1.48c-.58,0-1.23.09-1.23.65a.47.47,0,0,0,.5.5.73.73,0,0,0,.7-.48.51.51,0,0,0,0-.17Z"/><path class="cls-2" d="M101.32,19.39V22.9c0,.26,0,.55,0,.75h-.47l0-.51h0a1.06,1.06,0,0,1-1,.57,1.32,1.32,0,0,1-1.24-1.47,1.39,1.39,0,0,1,1.3-1.56,1,1,0,0,1,.88.44h0V19.39Zm-.53,2.54a1.5,1.5,0,0,0,0-.22.78.78,0,0,0-.76-.62c-.55,0-.87.48-.87,1.13s.28,1.07.85,1.07a.8.8,0,0,0,.78-.63,1.52,1.52,0,0,0,0-.23Z"/><path class="cls-2" d="M104.82,22.17a1.41,1.41,0,0,1-1.44,1.54A1.37,1.37,0,0,1,102,22.22a1.41,1.41,0,0,1,1.43-1.54A1.37,1.37,0,0,1,104.82,22.17Zm-2.3,0c0,.64.37,1.12.88,1.12s.88-.48.88-1.13c0-.49-.24-1.11-.87-1.11S102.52,21.65,102.52,22.2Z"/><path class="cls-2" d="M105.49,21.65c0-.34,0-.63,0-.9h.46l0,.57h0a.87.87,0,0,1,.8-.64l.15,0v.5a.5.5,0,0,0-.18,0,.73.73,0,0,0-.7.68.88.88,0,0,0,0,.24v1.55h-.52Z"/><path class="cls-2" d="M109.26,19.61V22c0,.9.41,1.29.94,1.29s1-.4,1-1.29V19.61h.53V22c0,1.24-.66,1.75-1.53,1.75s-1.45-.47-1.45-1.72V19.61Z"/><path class="cls-2" d="M114.84,23.65l-.52-.9c-.21-.34-.34-.56-.47-.79h0c-.11.23-.23.45-.44.8l-.48.89h-.6l1.23-2-1.18-2h.6l.53.94c.15.27.27.47.38.69h0c.12-.24.22-.43.37-.69l.55-.94h.6l-1.23,2,1.26,2.08Z"/><path class="cls-2" d="M117.13,21.83v.39h-1.48v-.39Z"/><path class="cls-2" d="M118.29,19.61V22c0,.9.4,1.29.94,1.29s1-.4,1-1.29V19.61h.53V22c0,1.24-.65,1.75-1.53,1.75s-1.45-.47-1.45-1.72V19.61Z"/><path class="cls-2" d="M122.17,19.61v4h-.52v-4Z"/><path class="cls-2" d="M125.8,22.22,123,23.65v-.42l2.36-1.17h0L123,20.87v-.41l2.78,1.43Z"/><g id="Layer_7" data-name="Layer 7"><rect class="cls-2" x="0.4" y="0.4" width="23.81" height="19.05" rx="1.59"/><path class="cls-3" d="M2,2H22.62V16.27H2Z"/><path class="cls-4" d="M2,2v13.1H19.84a1.59,1.59,0,0,0,1.59-1.59V2Z"/><rect class="cls-5" x="3.33" y="4.14" width="15.07" height="7.49" rx="1.19"/><path class="cls-6" d="M5.16,3.57H19.44V14.68H5.16Z"/><path class="cls-7" d="M5.16,3.57v9.92h11.5a1.59,1.59,0,0,0,1.59-1.59V3.57Z"/><path class="cls-8" d="M5.16,3.57H19.44V6.75H5.16Z"/><path class="cls-9" d="M5.16,3.57V6h12.3a1.19,1.19,0,0,0,1.19-1.19V3.57Z"/><path class="cls-2" d="M7.14,22.62H17.46a1.19,1.19,0,0,1,1.19,1.19h0v.39H6v-.39a1.19,1.19,0,0,1,1.19-1.19Z"/><path class="cls-10" d="M15.87,19.44H8.73l-.79,3.18h8.72Z"/><path d="M22.62,0H2A2,2,0,0,0,0,2V17.85a2,2,0,0,0,2,2H8.22l-.59,2.38H7.14a1.59,1.59,0,0,0-1.59,1.59v.39a.4.4,0,0,0,.4.4h12.7a.4.4,0,0,0,.4-.4v-.39a1.59,1.59,0,0,0-1.59-1.59H17l-.59-2.38h6.24a2,2,0,0,0,2-2V2A2,2,0,0,0,22.62,0ZM18.25,23.81H6.35a.79.79,0,0,1,.79-.8H17.46A.79.79,0,0,1,18.25,23.81Zm-2.09-1.59H8.44L9,19.84h6.52Zm7.65-4.37a1.2,1.2,0,0,1-1.19,1.2H2a1.2,1.2,0,0,1-1.19-1.2V2A1.2,1.2,0,0,1,2,.79H22.62A1.2,1.2,0,0,1,23.81,2Z"/><path d="M22.62,1.59H2A.38.38,0,0,0,1.59,2V16.27a.38.38,0,0,0,.39.39H22.62a.38.38,0,0,0,.39-.39V2A.38.38,0,0,0,22.62,1.59Zm-.4,14.28H2.38V2.38H22.22Z"/><path d="M21.43,17.46h.79v.79h-.79Z"/><path d="M19.84,17.46h.79v.79h-.79Z"/><path d="M5.16,15.08H19.44a.4.4,0,0,0,.4-.4V3.57a.4.4,0,0,0-.4-.4H5.16a.4.4,0,0,0-.4.4V14.68A.4.4,0,0,0,5.16,15.08Zm.39-7.94H7.14v7.14H5.55Zm2.39,7.14V7.14H19.05v7.14ZM19.05,4V6.35H5.55V4Z"/><path d="M17.46,4.76h.79v.79h-.79Z"/><path d="M15.87,4.76h.79v.79h-.79Z"/><path d="M11.62,10.6l.56-.56-.91-.91.91-.91-.56-.57-1.19,1.2a.4.4,0,0,0,0,.56Z"/><path d="M15.36,10.6l1.19-1.19a.4.4,0,0,0,0-.56l-1.19-1.2-.56.57.91.91L14.8,10Z"/><path d="M12.73,10.19l.79-2.38.76.25-.8,2.38Z"/><path d="M8.73,11.11h9.52v.79H8.73Z"/><path d="M8.73,12.7h7.93v.79H8.73Z"/><path d="M17.46,12.7h.79v.79h-.79Z"/></g></g></g></svg>