<svg xmlns="http://www.w3.org/2000/svg" viewBox="0 0 134.16 25.15"><defs><style>.cls-1{font-size:18px;fill:#020202;font-family:FreestyleScript-Regular, Freestyle Script;}.cls-2{font-size:6px;font-family:MyriadPro-Regular, Myriad Pro;}.cls-2,.cls-8{fill:#686868;}.cls-3{letter-spacing:0em;}.cls-4{letter-spacing:0em;}.cls-5{letter-spacing:-0.01em;}.cls-6{letter-spacing:-0.01em;}.cls-7{letter-spacing:-0.02em;}.cls-9{fill:#ccc;}.cls-10{fill:#f2f2f2;}.cls-11{fill:#fff;}.cls-12{fill:#bce4f8;}.cls-13{fill:#e4f5fd;}.cls-14{fill:#2763bb;}.cls-15{fill:#3079e6;}.cls-16{fill:#474747;}</style></defs><g id="Capa_2" data-name="Capa 2"><g id="Capa_1-2" data-name="Capa 1"><text class="cls-1" transform="translate(27.99 17.67)">Héctor Salas Inostroza</text><text class="cls-2" transform="translate(27.52 23.65)">&lt;<tspan class="cls-3" x="3.58" y="0">D</tspan><tspan x="7.6" y="0">esa</tspan><tspan class="cls-4" x="15.87" y="0">r</tspan><tspan class="cls-5" x="17.86" y="0">r</tspan><tspan x="19.76" y="0">ollador </tspan><tspan class="cls-6" x="38.69" y="0">w</tspan><tspan x="43.04" y="0">eb - Diseñador U</tspan><tspan class="cls-7" x="84.65" y="0">X</tspan><tspan x="87.95" y="0">-UI&gt;</tspan></text><g id="Layer_7" data-name="Layer 7"><rect class="cls-8" x="0.4" y="0.4" width="23.81" height="19.05" rx="1.59"/><path class="cls-9" d="M2,2H22.62V16.27H2Z"/><path class="cls-10" d="M2,2v13.1H19.84a1.59,1.59,0,0,0,1.59-1.59V2Z"/><rect class="cls-11" x="3.33" y="4.14" width="15.07" height="7.49" rx="1.19"/><path class="cls-12" d="M5.16,3.57H19.44V14.68H5.16Z"/><path class="cls-13" d="M5.16,3.57v9.92h11.5a1.59,1.59,0,0,0,1.59-1.59V3.57Z"/><path class="cls-14" d="M5.16,3.57H19.44V6.75H5.16Z"/><path class="cls-15" d="M5.16,3.57V6h12.3a1.19,1.19,0,0,0,1.19-1.19V3.57Z"/><path class="cls-8" d="M7.14,22.62H17.46a1.19,1.19,0,0,1,1.19,1.19h0v.39H6v-.39a1.19,1.19,0,0,1,1.19-1.19Z"/><path class="cls-16" d="M15.87,19.44H8.73l-.79,3.18h8.72Z"/><path d="M22.62,0H2A2,2,0,0,0,0,2V17.85a2,2,0,0,0,2,2H8.22l-.59,2.38H7.14a1.59,1.59,0,0,0-1.59,1.59v.39a.4.4,0,0,0,.4.4h12.7a.4.4,0,0,0,.4-.4v-.39a1.59,1.59,0,0,0-1.59-1.59H17l-.59-2.38h6.24a2,2,0,0,0,2-2V2A2,2,0,0,0,22.62,0ZM18.25,23.81H6.35a.79.79,0,0,1,.79-.8H17.46A.79.79,0,0,1,18.25,23.81Zm-2.09-1.59H8.44L9,19.84h6.52Zm7.65-4.37a1.2,1.2,0,0,1-1.19,1.2H2a1.2,1.2,0,0,1-1.19-1.2V2A1.2,1.2,0,0,1,2,.79H22.62A1.2,1.2,0,0,1,23.81,2Z"/><path d="M22.62,1.59H2A.38.38,0,0,0,1.59,2V16.27a.38.38,0,0,0,.39.39H22.62a.38.38,0,0,0,.39-.39V2A.38.38,0,0,0,22.62,1.59Zm-.4,14.28H2.38V2.38H22.22Z"/><path d="M21.43,17.46h.79v.79h-.79Z"/><path d="M19.84,17.46h.79v.79h-.79Z"/><path d="M5.16,15.08H19.44a.4.4,0,0,0,.4-.4V3.57a.4.4,0,0,0-.4-.4H5.16a.4.4,0,0,0-.4.4V14.68A.4.4,0,0,0,5.16,15.08Zm.39-7.94H7.14v7.14H5.55Zm2.39,7.14V7.14H19.05v7.14ZM19.05,4V6.35H5.55V4Z"/><path d="M17.46,4.76h.79v.79h-.79Z"/><path d="M15.87,4.76h.79v.79h-.79Z"/><path d="M11.62,10.6l.56-.56-.91-.91.91-.91-.56-.57-1.19,1.2a.4.4,0,0,0,0,.56Z"/><path d="M15.36,10.6l1.19-1.19a.4.4,0,0,0,0-.56l-1.19-1.2-.56.57.91.91L14.8,10Z"/><path d="M12.73,10.19l.79-2.38.76.25-.8,2.38Z"/><path d="M8.73,11.11h9.52v.79H8.73Z"/><path d="M8.73,12.7h7.93v.79H8.73Z"/><path d="M17.46,12.7h.79v.79h-.79Z"/></g></g></g></svg>